<svg version="1.1" id="Layer_1" xmlns="http://www.w3.org/2000/svg" xmlns:xlink="http://www.w3.org/1999/xlink" x="0px" y="0px" width="123.667px" height="123.333px" viewBox="0 0 123.667 123.333" enable-background="new 0 0 123.667 123.333" xml:space="preserve">
	<g>
		<g>
			<path fill="#208756" d="M62.278,6.5c30.588,0,55.385,24.796,55.385,55.384c0,30.589-24.797,55.385-55.385,55.385
			c-30.588,0-55.384-24.796-55.384-55.385C6.894,31.296,31.69,6.5,62.278,6.5 M62.278,2.396C29.477,2.396,2.79,29.083,2.79,61.884
			c0,32.803,26.687,59.488,59.488,59.488s59.489-26.686,59.489-59.488C121.767,29.083,95.079,2.396,62.278,2.396L62.278,2.396z" />
		</g>
		<g>
			<path fill="#208756" d="M29.725,35.748v2.418l-2.144,0.412v11.169c0,1.932-0.629,3.464-1.889,4.595
			c-1.26,1.131-2.851,1.697-4.774,1.697c-2.088,0-3.741-0.509-4.959-1.525c-1.219-1.017-1.805-2.514-1.759-4.492l0.027-0.083h3.902
			c0,1.053,0.251,1.82,0.755,2.301c0.504,0.48,1.182,0.721,2.033,0.721c0.742,0,1.372-0.286,1.89-0.858
			c0.517-0.572,0.776-1.357,0.776-2.356V38.578l-2.143-0.412v-2.418h6.141H29.725z" />
			<path fill="#208756" d="M30.961,48.181c0-2.217,0.62-4.032,1.861-5.447s2.956-2.123,5.146-2.123c2.198,0,3.917,0.705,5.158,2.116
			c1.241,1.41,1.862,3.229,1.862,5.454v0.288c0,2.235-0.621,4.055-1.862,5.461c-1.241,1.406-2.951,2.109-5.131,2.109
			c-2.207,0-3.932-0.703-5.173-2.109c-1.241-1.406-1.861-3.226-1.861-5.461V48.181z M34.973,48.469c0,1.355,0.238,2.443,0.714,3.263
			c0.477,0.82,1.246,1.229,2.309,1.229c1.035,0,1.793-0.412,2.273-1.236c0.481-0.824,0.722-1.909,0.722-3.256v-0.288
			c0-1.319-0.243-2.396-0.729-3.229c-0.485-0.834-1.25-1.25-2.294-1.25c-1.044,0-1.805,0.417-2.281,1.25
			c-0.476,0.833-0.714,1.909-0.714,3.229V48.469z" />
			<path fill="#208756" d="M58.864,45.997h-2.692l-0.426-1.854c-0.275-0.22-0.621-0.403-1.037-0.55
			c-0.417-0.146-0.877-0.22-1.381-0.22c-0.705,0-1.264,0.158-1.676,0.474c-0.412,0.316-0.619,0.712-0.619,1.188
			c0,0.449,0.197,0.822,0.591,1.12c0.395,0.297,1.182,0.561,2.363,0.79c1.841,0.367,3.206,0.905,4.094,1.614
			c0.889,0.71,1.333,1.688,1.333,2.933c0,1.337-0.575,2.43-1.725,3.276c-1.149,0.848-2.663,1.271-4.54,1.271
			c-1.145,0-2.196-0.167-3.153-0.502c-0.957-0.334-1.807-0.813-2.548-1.436l-0.042-3.338h2.802l0.55,1.937
			c0.238,0.202,0.563,0.351,0.976,0.446c0.412,0.097,0.843,0.145,1.291,0.145c0.815,0,1.436-0.146,1.862-0.439
			s0.639-0.691,0.639-1.195c0-0.439-0.216-0.82-0.646-1.141c-0.43-0.32-1.223-0.604-2.376-0.852
			c-1.75-0.357-3.071-0.886-3.964-1.587c-0.893-0.7-1.339-1.655-1.339-2.864c0-1.246,0.513-2.319,1.539-3.222
			c1.026-0.902,2.486-1.354,4.383-1.354c1.154,0,2.246,0.156,3.276,0.468c1.03,0.311,1.839,0.709,2.425,1.195L58.864,45.997z" />
			<path fill="#208756" d="M68.329,56.04c-2.143,0-3.855-0.688-5.137-2.061c-1.282-1.374-1.924-3.119-1.924-5.234v-0.549
			c0-2.208,0.607-4.025,1.821-5.454c1.212-1.429,2.841-2.139,4.884-2.13c2.006,0,3.563,0.604,4.67,1.813
			c1.109,1.209,1.662,2.844,1.662,4.905v2.184h-8.875l-0.027,0.083c0.074,0.979,0.4,1.786,0.982,2.418
			c0.582,0.632,1.371,0.947,2.369,0.947c0.889,0,1.627-0.089,2.213-0.268s1.227-0.46,1.924-0.845l1.084,2.473
			c-0.613,0.485-1.408,0.893-2.383,1.223C70.618,55.875,69.53,56.04,68.329,56.04z M67.974,43.702c-0.742,0-1.328,0.284-1.76,0.852
			c-0.43,0.567-0.695,1.314-0.797,2.239l0.041,0.068h4.918v-0.357c0-0.852-0.199-1.532-0.596-2.041
			C69.382,43.957,68.778,43.702,67.974,43.702z" />
			<path fill="#208756" d="M75.899,43.304v-2.418h5.826l0.191,1.731c0.439-0.641,0.967-1.136,1.58-1.483
			c0.613-0.348,1.328-0.522,2.143-0.522c1.842,0,3.27,0.719,4.287,2.157c1.016,1.438,1.525,3.329,1.525,5.674v0.289
			c0,2.198-0.51,3.965-1.525,5.303c-1.018,1.337-2.436,2.006-4.26,2.006c-0.777,0-1.469-0.145-2.074-0.433
			c-0.604-0.289-1.121-0.712-1.553-1.271v4.3l1.938,0.412v2.418h-7.871v-2.418l1.936-0.412V43.716L75.899,43.304z M87.44,48.442
			c0-1.401-0.234-2.537-0.701-3.407s-1.182-1.305-2.143-1.305c-0.605,0-1.121,0.123-1.547,0.371s-0.762,0.6-1.01,1.058v6.512
			c0.248,0.421,0.584,0.742,1.01,0.962s0.951,0.329,1.574,0.329c0.971,0,1.682-0.38,2.137-1.14c0.453-0.761,0.68-1.791,0.68-3.091
			V48.442z" />
			<path fill="#208756" d="M96.438,36.943c0,0.916-0.242,1.88-0.729,2.892c-0.484,1.013-1.076,1.839-1.771,2.48l-1.979-1.086
			c0.357-0.632,0.633-1.289,0.824-1.971s0.289-1.454,0.289-2.315v-2.624h3.365V36.943z" />
			<path fill="#208756" d="M109.353,45.997h-2.693l-0.426-1.854c-0.273-0.22-0.619-0.403-1.037-0.55
			c-0.416-0.146-0.877-0.22-1.381-0.22c-0.705,0-1.264,0.158-1.676,0.474c-0.412,0.316-0.617,0.712-0.617,1.188
			c0,0.449,0.195,0.822,0.59,1.12c0.395,0.297,1.182,0.561,2.363,0.79c1.84,0.367,3.205,0.905,4.094,1.614
			c0.889,0.71,1.332,1.688,1.332,2.933c0,1.337-0.574,2.43-1.723,3.276c-1.15,0.848-2.664,1.271-4.541,1.271
			c-1.145,0-2.195-0.167-3.152-0.502c-0.957-0.334-1.807-0.813-2.549-1.436l-0.041-3.338h2.803l0.549,1.937
			c0.238,0.202,0.563,0.351,0.975,0.446c0.412,0.097,0.844,0.145,1.293,0.145c0.814,0,1.436-0.146,1.861-0.439
			s0.639-0.691,0.639-1.195c0-0.439-0.215-0.82-0.646-1.141c-0.43-0.32-1.223-0.604-2.377-0.852
			c-1.748-0.357-3.07-0.886-3.963-1.587c-0.893-0.7-1.34-1.655-1.34-2.864c0-1.246,0.514-2.319,1.539-3.222s2.486-1.354,4.383-1.354
			c1.154,0,2.246,0.156,3.275,0.468c1.031,0.311,1.84,0.709,2.426,1.195L109.353,45.997z" />
			<path fill="#208756" d="M44.754,69.511v2.418l-2.143,0.412v17.174h-3.998l-8.078-13.464l-0.083,0.014v10.634l2.143,0.412v2.404
			h-8.284V87.11l2.13-0.412V72.341l-2.13-0.412v-2.418h2.13h4.011l8.078,13.464l0.083-0.014v-10.62l-2.144-0.412v-2.418h6.142
			H44.754z" />
			<path fill="#208756" d="M46.142,81.944c0-2.217,0.621-4.032,1.861-5.447c1.241-1.415,2.956-2.123,5.146-2.123
			c2.198,0,3.918,0.705,5.159,2.116c1.241,1.41,1.862,3.229,1.862,5.454v0.288c0,2.235-0.621,4.056-1.862,5.462
			c-1.241,1.405-2.952,2.108-5.131,2.108c-2.207,0-3.932-0.703-5.173-2.108c-1.24-1.406-1.861-3.227-1.861-5.462V81.944z
			 M50.154,82.232c0,1.356,0.238,2.443,0.715,3.263c0.476,0.82,1.245,1.23,2.308,1.23c1.035,0,1.793-0.412,2.273-1.236
			c0.481-0.824,0.722-1.91,0.722-3.257v-0.288c0-1.319-0.243-2.395-0.729-3.229s-1.25-1.25-2.294-1.25s-1.805,0.416-2.28,1.25
			c-0.477,0.834-0.715,1.909-0.715,3.229V82.232z" />
			<path fill="#208756" d="M67.835,71.009v3.641h2.611v2.816h-2.611v7.569c0,0.577,0.119,0.989,0.357,1.236s0.559,0.371,0.961,0.371
			c0.275,0,0.516-0.011,0.723-0.034c0.205-0.023,0.438-0.062,0.693-0.117l0.344,2.899c-0.449,0.138-0.893,0.24-1.332,0.309
			c-0.441,0.069-0.916,0.104-1.43,0.104c-1.383,0-2.447-0.38-3.193-1.141c-0.748-0.76-1.121-1.964-1.121-3.613v-7.583h-2.184v-2.816
			h2.184v-3.641H67.835z" />
			<path fill="#208756" d="M79.526,89.803c-2.143,0-3.855-0.687-5.139-2.062c-1.281-1.373-1.922-3.118-1.922-5.233v-0.55
			c0-2.207,0.605-4.025,1.82-5.454c1.213-1.429,2.842-2.139,4.883-2.13c2.006,0,3.563,0.605,4.672,1.814
			c1.107,1.209,1.662,2.844,1.662,4.904v2.184h-8.875l-0.027,0.083c0.072,0.979,0.4,1.786,0.982,2.418s1.371,0.948,2.369,0.948
			c0.889,0,1.627-0.09,2.213-0.269s1.227-0.46,1.922-0.845l1.086,2.473c-0.613,0.486-1.408,0.894-2.383,1.223
			C81.813,89.638,80.726,89.803,79.526,89.803z M79.169,77.466c-0.742,0-1.328,0.283-1.758,0.852s-0.695,1.314-0.797,2.239
			l0.041,0.068h4.918v-0.356c0-0.852-0.199-1.532-0.598-2.041C80.577,77.72,79.976,77.466,79.169,77.466z" />
			<path fill="#208756" d="M99.53,79.76h-2.693l-0.426-1.854c-0.275-0.22-0.621-0.403-1.037-0.55s-0.877-0.22-1.381-0.22
			c-0.705,0-1.264,0.158-1.676,0.475c-0.412,0.315-0.619,0.711-0.619,1.188c0,0.449,0.197,0.822,0.592,1.12
			c0.393,0.298,1.182,0.561,2.363,0.79c1.84,0.366,3.205,0.904,4.094,1.614s1.332,1.688,1.332,2.933c0,1.338-0.574,2.43-1.725,3.277
			c-1.148,0.847-2.662,1.271-4.539,1.271c-1.146,0-2.197-0.167-3.154-0.502c-0.957-0.334-1.807-0.813-2.549-1.436l-0.041-3.338
			h2.803l0.551,1.937c0.238,0.201,0.563,0.351,0.975,0.447c0.412,0.096,0.842,0.144,1.291,0.144c0.816,0,1.436-0.146,1.861-0.439
			s0.639-0.691,0.639-1.195c0-0.439-0.215-0.819-0.645-1.14c-0.432-0.321-1.223-0.605-2.377-0.853
			c-1.75-0.356-3.07-0.886-3.963-1.587c-0.895-0.7-1.34-1.655-1.34-2.864c0-1.245,0.512-2.319,1.539-3.222
			c1.025-0.902,2.486-1.354,4.381-1.354c1.154,0,2.248,0.156,3.277,0.468c1.031,0.312,1.838,0.71,2.426,1.195L99.53,79.76z" />
		</g>
	</g>
</svg>